<mxfile host="app.diagrams.net" modified="2023-05-15T17:55:58.195Z" agent="Mozilla/5.0 (Windows NT 10.0; Win64; x64) AppleWebKit/537.36 (KHTML, like Gecko) Chrome/113.0.0.0 Safari/537.36" etag="O_wVNIXL3bl4vxW6398_" version="21.3.2" type="device">
  <diagram name="Página-1" id="35jUV0fy7maO1tGax29V">
    <mxGraphModel dx="1323" dy="1886" grid="1" gridSize="10" guides="1" tooltips="1" connect="1" arrows="1" fold="1" page="1" pageScale="1" pageWidth="827" pageHeight="1169" math="0" shadow="0">
      <root>
        <mxCell id="0" />
        <mxCell id="1" parent="0" />
        <mxCell id="TNLuwmk-kuLkOU286Gwd-25" value="&lt;span style=&quot;font-size: 18px;&quot;&gt;&lt;b&gt;Cliente&lt;/b&gt;&lt;/span&gt;" style="text;html=1;align=center;verticalAlign=middle;resizable=0;points=[];autosize=1;strokeColor=none;fillColor=none;" parent="1" vertex="1">
          <mxGeometry x="80" y="40" width="80" height="40" as="geometry" />
        </mxCell>
        <mxCell id="TNLuwmk-kuLkOU286Gwd-39" value="&lt;b style=&quot;border-color: var(--border-color); font-size: 18px;&quot;&gt;Recepcionista&lt;/b&gt;" style="text;html=1;align=center;verticalAlign=middle;resizable=0;points=[];autosize=1;strokeColor=none;fillColor=none;" parent="1" vertex="1">
          <mxGeometry x="70" y="320" width="150" height="40" as="geometry" />
        </mxCell>
        <mxCell id="TNLuwmk-kuLkOU286Gwd-67" value="" style="shape=table;startSize=0;container=1;collapsible=0;childLayout=tableLayout;fontSize=16;" parent="1" vertex="1">
          <mxGeometry x="80" y="604" width="400" height="40" as="geometry" />
        </mxCell>
        <mxCell id="TNLuwmk-kuLkOU286Gwd-68" value="" style="shape=tableRow;horizontal=0;startSize=0;swimlaneHead=0;swimlaneBody=0;strokeColor=inherit;top=0;left=0;bottom=0;right=0;collapsible=0;dropTarget=0;fillColor=none;points=[[0,0.5],[1,0.5]];portConstraint=eastwest;fontSize=16;" parent="TNLuwmk-kuLkOU286Gwd-67" vertex="1">
          <mxGeometry width="400" height="40" as="geometry" />
        </mxCell>
        <mxCell id="TNLuwmk-kuLkOU286Gwd-69" value="Hora" style="shape=partialRectangle;html=1;whiteSpace=wrap;connectable=0;strokeColor=inherit;overflow=hidden;fillColor=none;top=0;left=0;bottom=0;right=0;pointerEvents=1;fontSize=16;" parent="TNLuwmk-kuLkOU286Gwd-68" vertex="1">
          <mxGeometry width="133" height="40" as="geometry">
            <mxRectangle width="133" height="40" as="alternateBounds" />
          </mxGeometry>
        </mxCell>
        <mxCell id="TNLuwmk-kuLkOU286Gwd-70" value="Data" style="shape=partialRectangle;html=1;whiteSpace=wrap;connectable=0;strokeColor=inherit;overflow=hidden;fillColor=none;top=0;left=0;bottom=0;right=0;pointerEvents=1;fontSize=16;" parent="TNLuwmk-kuLkOU286Gwd-68" vertex="1">
          <mxGeometry x="133" width="132" height="40" as="geometry">
            <mxRectangle width="132" height="40" as="alternateBounds" />
          </mxGeometry>
        </mxCell>
        <mxCell id="TNLuwmk-kuLkOU286Gwd-71" value="Preço" style="shape=partialRectangle;html=1;whiteSpace=wrap;connectable=0;strokeColor=inherit;overflow=hidden;fillColor=none;top=0;left=0;bottom=0;right=0;pointerEvents=1;fontSize=16;" parent="TNLuwmk-kuLkOU286Gwd-68" vertex="1">
          <mxGeometry x="265" width="135" height="40" as="geometry">
            <mxRectangle width="135" height="40" as="alternateBounds" />
          </mxGeometry>
        </mxCell>
        <mxCell id="TNLuwmk-kuLkOU286Gwd-73" value="&lt;font style=&quot;font-size: 18px;&quot;&gt;Consulta&lt;/font&gt;" style="text;html=1;align=center;verticalAlign=middle;resizable=0;points=[];autosize=1;strokeColor=none;fillColor=none;fontStyle=1" parent="1" vertex="1">
          <mxGeometry x="65" y="564" width="100" height="40" as="geometry" />
        </mxCell>
        <mxCell id="TNLuwmk-kuLkOU286Gwd-74" value="" style="shape=table;startSize=0;container=1;collapsible=0;childLayout=tableLayout;fontSize=16;" parent="1" vertex="1">
          <mxGeometry x="80" y="760" width="260" height="40" as="geometry" />
        </mxCell>
        <mxCell id="TNLuwmk-kuLkOU286Gwd-75" value="" style="shape=tableRow;horizontal=0;startSize=0;swimlaneHead=0;swimlaneBody=0;strokeColor=inherit;top=0;left=0;bottom=0;right=0;collapsible=0;dropTarget=0;fillColor=none;points=[[0,0.5],[1,0.5]];portConstraint=eastwest;fontSize=16;" parent="TNLuwmk-kuLkOU286Gwd-74" vertex="1">
          <mxGeometry width="260" height="40" as="geometry" />
        </mxCell>
        <mxCell id="TNLuwmk-kuLkOU286Gwd-76" value="&lt;u&gt;ID da receita&lt;/u&gt;" style="shape=partialRectangle;html=1;whiteSpace=wrap;connectable=0;strokeColor=inherit;overflow=hidden;fillColor=none;top=0;left=0;bottom=0;right=0;pointerEvents=1;fontSize=16;" parent="TNLuwmk-kuLkOU286Gwd-75" vertex="1">
          <mxGeometry width="130" height="40" as="geometry">
            <mxRectangle width="130" height="40" as="alternateBounds" />
          </mxGeometry>
        </mxCell>
        <mxCell id="TNLuwmk-kuLkOU286Gwd-77" value="Descrição" style="shape=partialRectangle;html=1;whiteSpace=wrap;connectable=0;strokeColor=inherit;overflow=hidden;fillColor=none;top=0;left=0;bottom=0;right=0;pointerEvents=1;fontSize=16;" parent="TNLuwmk-kuLkOU286Gwd-75" vertex="1">
          <mxGeometry x="130" width="130" height="40" as="geometry">
            <mxRectangle width="130" height="40" as="alternateBounds" />
          </mxGeometry>
        </mxCell>
        <mxCell id="TNLuwmk-kuLkOU286Gwd-80" value="&lt;font style=&quot;font-size: 18px;&quot;&gt;Receita&lt;/font&gt;" style="text;html=1;align=center;verticalAlign=middle;resizable=0;points=[];autosize=1;strokeColor=none;fillColor=none;fontStyle=1" parent="1" vertex="1">
          <mxGeometry x="75" y="730" width="90" height="40" as="geometry" />
        </mxCell>
        <mxCell id="TNLuwmk-kuLkOU286Gwd-81" value="" style="shape=table;startSize=0;container=1;collapsible=0;childLayout=tableLayout;fontSize=16;" parent="1" vertex="1">
          <mxGeometry x="80" y="900" width="776" height="40" as="geometry" />
        </mxCell>
        <mxCell id="TNLuwmk-kuLkOU286Gwd-82" value="" style="shape=tableRow;horizontal=0;startSize=0;swimlaneHead=0;swimlaneBody=0;strokeColor=inherit;top=0;left=0;bottom=0;right=0;collapsible=0;dropTarget=0;fillColor=none;points=[[0,0.5],[1,0.5]];portConstraint=eastwest;fontSize=16;" parent="TNLuwmk-kuLkOU286Gwd-81" vertex="1">
          <mxGeometry width="776" height="40" as="geometry" />
        </mxCell>
        <mxCell id="TNLuwmk-kuLkOU286Gwd-83" value="Nome" style="shape=partialRectangle;html=1;whiteSpace=wrap;connectable=0;strokeColor=inherit;overflow=hidden;fillColor=none;top=0;left=0;bottom=0;right=0;pointerEvents=1;fontSize=16;" parent="TNLuwmk-kuLkOU286Gwd-82" vertex="1">
          <mxGeometry width="154" height="40" as="geometry">
            <mxRectangle width="154" height="40" as="alternateBounds" />
          </mxGeometry>
        </mxCell>
        <mxCell id="TNLuwmk-kuLkOU286Gwd-84" value="Morada" style="shape=partialRectangle;html=1;whiteSpace=wrap;connectable=0;strokeColor=inherit;overflow=hidden;fillColor=none;top=0;left=0;bottom=0;right=0;pointerEvents=1;fontSize=16;" parent="TNLuwmk-kuLkOU286Gwd-82" vertex="1">
          <mxGeometry x="154" width="154" height="40" as="geometry">
            <mxRectangle width="154" height="40" as="alternateBounds" />
          </mxGeometry>
        </mxCell>
        <mxCell id="TNLuwmk-kuLkOU286Gwd-85" value="Telemóvel" style="shape=partialRectangle;html=1;whiteSpace=wrap;connectable=0;strokeColor=inherit;overflow=hidden;fillColor=none;top=0;left=0;bottom=0;right=0;pointerEvents=1;fontSize=16;" parent="TNLuwmk-kuLkOU286Gwd-82" vertex="1">
          <mxGeometry x="308" width="156" height="40" as="geometry">
            <mxRectangle width="156" height="40" as="alternateBounds" />
          </mxGeometry>
        </mxCell>
        <mxCell id="TNLuwmk-kuLkOU286Gwd-86" value="&lt;u&gt;NIF&lt;/u&gt;" style="shape=partialRectangle;html=1;whiteSpace=wrap;connectable=0;strokeColor=inherit;overflow=hidden;fillColor=none;top=0;left=0;bottom=0;right=0;pointerEvents=1;fontSize=16;" parent="TNLuwmk-kuLkOU286Gwd-82" vertex="1">
          <mxGeometry x="464" width="156" height="40" as="geometry">
            <mxRectangle width="156" height="40" as="alternateBounds" />
          </mxGeometry>
        </mxCell>
        <mxCell id="DKVHLjh7N5mHSXtAj3bC-11" value="Email" style="shape=partialRectangle;html=1;whiteSpace=wrap;connectable=0;strokeColor=inherit;overflow=hidden;fillColor=none;top=0;left=0;bottom=0;right=0;pointerEvents=1;fontSize=16;" parent="TNLuwmk-kuLkOU286Gwd-82" vertex="1">
          <mxGeometry x="620" width="156" height="40" as="geometry">
            <mxRectangle width="156" height="40" as="alternateBounds" />
          </mxGeometry>
        </mxCell>
        <mxCell id="TNLuwmk-kuLkOU286Gwd-87" value="&lt;font style=&quot;font-size: 18px;&quot;&gt;Fornecedor&lt;/font&gt;" style="text;html=1;align=center;verticalAlign=middle;resizable=0;points=[];autosize=1;strokeColor=none;fillColor=none;fontStyle=1" parent="1" vertex="1">
          <mxGeometry x="75" y="860" width="120" height="40" as="geometry" />
        </mxCell>
        <mxCell id="TNLuwmk-kuLkOU286Gwd-94" value="&lt;font style=&quot;font-size: 18px;&quot;&gt;Fornecido por&lt;/font&gt;" style="text;html=1;align=center;verticalAlign=middle;resizable=0;points=[];autosize=1;strokeColor=none;fillColor=none;fontStyle=1" parent="1" vertex="1">
          <mxGeometry x="70" y="1000" width="140" height="40" as="geometry" />
        </mxCell>
        <mxCell id="QlKCZ8pw-FHC3lZImdkT-1" value="" style="shape=table;startSize=0;container=1;collapsible=0;childLayout=tableLayout;fontSize=16;" parent="1" vertex="1">
          <mxGeometry x="80" y="220" width="260" height="40.000000000000114" as="geometry" />
        </mxCell>
        <mxCell id="QlKCZ8pw-FHC3lZImdkT-2" value="" style="shape=tableRow;horizontal=0;startSize=0;swimlaneHead=0;swimlaneBody=0;strokeColor=inherit;top=0;left=0;bottom=0;right=0;collapsible=0;dropTarget=0;fillColor=none;points=[[0,0.5],[1,0.5]];portConstraint=eastwest;fontSize=16;" parent="QlKCZ8pw-FHC3lZImdkT-1" vertex="1">
          <mxGeometry width="260" height="40" as="geometry" />
        </mxCell>
        <mxCell id="QlKCZ8pw-FHC3lZImdkT-3" value="Nome" style="shape=partialRectangle;html=1;whiteSpace=wrap;connectable=0;strokeColor=inherit;overflow=hidden;fillColor=none;top=0;left=0;bottom=0;right=0;pointerEvents=1;fontSize=16;" parent="QlKCZ8pw-FHC3lZImdkT-2" vertex="1">
          <mxGeometry width="130" height="40" as="geometry">
            <mxRectangle width="130" height="40" as="alternateBounds" />
          </mxGeometry>
        </mxCell>
        <mxCell id="QlKCZ8pw-FHC3lZImdkT-4" value="Telemóvel" style="shape=partialRectangle;html=1;whiteSpace=wrap;connectable=0;strokeColor=inherit;overflow=hidden;fillColor=none;top=0;left=0;bottom=0;right=0;pointerEvents=1;fontSize=16;" parent="QlKCZ8pw-FHC3lZImdkT-2" vertex="1">
          <mxGeometry x="130" width="130" height="40" as="geometry">
            <mxRectangle width="130" height="40" as="alternateBounds" />
          </mxGeometry>
        </mxCell>
        <mxCell id="QlKCZ8pw-FHC3lZImdkT-5" value="&lt;b style=&quot;border-color: var(--border-color); font-size: 18px;&quot;&gt;Funcionário&lt;/b&gt;" style="text;html=1;align=center;verticalAlign=middle;resizable=0;points=[];autosize=1;strokeColor=none;fillColor=none;" parent="1" vertex="1">
          <mxGeometry x="75" y="190" width="130" height="40" as="geometry" />
        </mxCell>
        <mxCell id="QlKCZ8pw-FHC3lZImdkT-60" value="" style="shape=table;startSize=0;container=1;collapsible=0;childLayout=tableLayout;fontSize=16;" parent="1" vertex="1">
          <mxGeometry x="80" y="1210" width="370" height="40" as="geometry" />
        </mxCell>
        <mxCell id="QlKCZ8pw-FHC3lZImdkT-61" value="" style="shape=tableRow;horizontal=0;startSize=0;swimlaneHead=0;swimlaneBody=0;strokeColor=inherit;top=0;left=0;bottom=0;right=0;collapsible=0;dropTarget=0;fillColor=none;points=[[0,0.5],[1,0.5]];portConstraint=eastwest;fontSize=16;" parent="QlKCZ8pw-FHC3lZImdkT-60" vertex="1">
          <mxGeometry width="370" height="40" as="geometry" />
        </mxCell>
        <mxCell id="QlKCZ8pw-FHC3lZImdkT-62" value="&lt;span style=&quot;border-color: var(--border-color);&quot;&gt;Preço&lt;/span&gt;" style="shape=partialRectangle;html=1;whiteSpace=wrap;connectable=0;strokeColor=inherit;overflow=hidden;fillColor=none;top=0;left=0;bottom=0;right=0;pointerEvents=1;fontSize=16;" parent="QlKCZ8pw-FHC3lZImdkT-61" vertex="1">
          <mxGeometry width="123" height="40" as="geometry">
            <mxRectangle width="123" height="40" as="alternateBounds" />
          </mxGeometry>
        </mxCell>
        <mxCell id="QlKCZ8pw-FHC3lZImdkT-63" value="Tipo de produto" style="shape=partialRectangle;html=1;whiteSpace=wrap;connectable=0;strokeColor=inherit;overflow=hidden;fillColor=none;top=0;left=0;bottom=0;right=0;pointerEvents=1;fontSize=16;" parent="QlKCZ8pw-FHC3lZImdkT-61" vertex="1">
          <mxGeometry x="123" width="117" height="40" as="geometry">
            <mxRectangle width="117" height="40" as="alternateBounds" />
          </mxGeometry>
        </mxCell>
        <mxCell id="QlKCZ8pw-FHC3lZImdkT-64" value="&lt;u&gt;ID do produto&lt;/u&gt;" style="shape=partialRectangle;html=1;whiteSpace=wrap;connectable=0;strokeColor=inherit;overflow=hidden;fillColor=none;top=0;left=0;bottom=0;right=0;pointerEvents=1;fontSize=16;" parent="QlKCZ8pw-FHC3lZImdkT-61" vertex="1">
          <mxGeometry x="240" width="130" height="40" as="geometry">
            <mxRectangle width="130" height="40" as="alternateBounds" />
          </mxGeometry>
        </mxCell>
        <mxCell id="QlKCZ8pw-FHC3lZImdkT-70" value="&lt;font style=&quot;font-size: 18px;&quot;&gt;Produto&lt;/font&gt;" style="text;html=1;align=center;verticalAlign=middle;resizable=0;points=[];autosize=1;strokeColor=none;fillColor=none;fontStyle=1" parent="1" vertex="1">
          <mxGeometry x="80" y="1169" width="90" height="40" as="geometry" />
        </mxCell>
        <mxCell id="50MeNpUmbAteGGUXeH18-8" value="&lt;font style=&quot;font-size: 16px;&quot;&gt;Email&lt;/font&gt;" style="rounded=0;whiteSpace=wrap;html=1;" parent="1" vertex="1">
          <mxGeometry x="530" y="80" width="116" height="40" as="geometry" />
        </mxCell>
        <mxCell id="50MeNpUmbAteGGUXeH18-9" value="&lt;font style=&quot;font-size: 16px;&quot;&gt;&lt;u&gt;NIF&lt;/u&gt;&lt;/font&gt;" style="rounded=0;whiteSpace=wrap;html=1;" parent="1" vertex="1">
          <mxGeometry x="646" y="80" width="116" height="40" as="geometry" />
        </mxCell>
        <mxCell id="50MeNpUmbAteGGUXeH18-10" value="&lt;font style=&quot;font-size: 16px;&quot;&gt;Morada&lt;/font&gt;" style="rounded=0;whiteSpace=wrap;html=1;" parent="1" vertex="1">
          <mxGeometry x="340" y="220" width="116" height="40" as="geometry" />
        </mxCell>
        <mxCell id="50MeNpUmbAteGGUXeH18-11" value="&lt;font style=&quot;font-size: 16px;&quot;&gt;Email&lt;/font&gt;" style="rounded=0;whiteSpace=wrap;html=1;" parent="1" vertex="1">
          <mxGeometry x="456" y="220" width="116" height="40" as="geometry" />
        </mxCell>
        <mxCell id="50MeNpUmbAteGGUXeH18-12" value="&lt;span style=&quot;font-size: 16px;&quot;&gt;&lt;u&gt;CC&lt;/u&gt;&lt;/span&gt;" style="rounded=0;whiteSpace=wrap;html=1;" parent="1" vertex="1">
          <mxGeometry x="572" y="220" width="116" height="40" as="geometry" />
        </mxCell>
        <mxCell id="50MeNpUmbAteGGUXeH18-15" value="" style="endArrow=classic;html=1;rounded=0;exitX=0.89;exitY=0.019;exitDx=0;exitDy=0;exitPerimeter=0;" parent="1" source="50MeNpUmbAteGGUXeH18-14" edge="1">
          <mxGeometry width="50" height="50" relative="1" as="geometry">
            <mxPoint x="250" y="340" as="sourcePoint" />
            <mxPoint x="600" y="260" as="targetPoint" />
            <Array as="points">
              <mxPoint x="301" y="300" />
              <mxPoint x="600" y="300" />
            </Array>
          </mxGeometry>
        </mxCell>
        <mxCell id="50MeNpUmbAteGGUXeH18-16" value="" style="group" parent="1" vertex="1" connectable="0">
          <mxGeometry x="82" y="350" width="232" height="40" as="geometry" />
        </mxCell>
        <mxCell id="50MeNpUmbAteGGUXeH18-13" value="&lt;font style=&quot;font-size: 16px;&quot;&gt;Num_func&lt;/font&gt;" style="rounded=0;whiteSpace=wrap;html=1;" parent="50MeNpUmbAteGGUXeH18-16" vertex="1">
          <mxGeometry width="116" height="40" as="geometry" />
        </mxCell>
        <mxCell id="50MeNpUmbAteGGUXeH18-14" value="&lt;font style=&quot;font-size: 16px;&quot;&gt;&lt;u&gt;CC&lt;/u&gt;&lt;/font&gt;" style="rounded=0;whiteSpace=wrap;html=1;" parent="50MeNpUmbAteGGUXeH18-16" vertex="1">
          <mxGeometry x="116" width="116" height="40" as="geometry" />
        </mxCell>
        <mxCell id="50MeNpUmbAteGGUXeH18-25" value="&lt;b style=&quot;border-color: var(--border-color); font-size: 18px;&quot;&gt;Doutor&lt;/b&gt;" style="text;html=1;align=center;verticalAlign=middle;resizable=0;points=[];autosize=1;strokeColor=none;fillColor=none;" parent="1" vertex="1">
          <mxGeometry x="75" y="420" width="80" height="40" as="geometry" />
        </mxCell>
        <mxCell id="50MeNpUmbAteGGUXeH18-26" value="" style="group" parent="1" vertex="1" connectable="0">
          <mxGeometry x="82" y="450" width="232" height="40" as="geometry" />
        </mxCell>
        <mxCell id="50MeNpUmbAteGGUXeH18-27" value="&lt;span style=&quot;font-size: 16px;&quot;&gt;Num SNS&lt;/span&gt;" style="rounded=0;whiteSpace=wrap;html=1;" parent="50MeNpUmbAteGGUXeH18-26" vertex="1">
          <mxGeometry width="116" height="40" as="geometry" />
        </mxCell>
        <mxCell id="50MeNpUmbAteGGUXeH18-28" value="&lt;font style=&quot;font-size: 16px;&quot;&gt;&lt;u&gt;CC&lt;/u&gt;&lt;/font&gt;" style="rounded=0;whiteSpace=wrap;html=1;" parent="50MeNpUmbAteGGUXeH18-26" vertex="1">
          <mxGeometry x="116" width="116" height="40" as="geometry" />
        </mxCell>
        <mxCell id="50MeNpUmbAteGGUXeH18-29" value="" style="endArrow=classic;html=1;rounded=0;exitX=0.89;exitY=0.019;exitDx=0;exitDy=0;exitPerimeter=0;entryX=0.5;entryY=1;entryDx=0;entryDy=0;" parent="1" target="50MeNpUmbAteGGUXeH18-12" edge="1">
          <mxGeometry width="50" height="50" relative="1" as="geometry">
            <mxPoint x="300" y="451" as="sourcePoint" />
            <mxPoint x="599" y="360" as="targetPoint" />
            <Array as="points">
              <mxPoint x="300" y="410" />
              <mxPoint x="630" y="410" />
            </Array>
          </mxGeometry>
        </mxCell>
        <mxCell id="50MeNpUmbAteGGUXeH18-30" value="&lt;font style=&quot;font-size: 16px;&quot;&gt;&lt;u&gt;Nº de consulta&lt;/u&gt;&lt;/font&gt;" style="rounded=0;whiteSpace=wrap;html=1;" parent="1" vertex="1">
          <mxGeometry x="480" y="604" width="116" height="40" as="geometry" />
        </mxCell>
        <mxCell id="50MeNpUmbAteGGUXeH18-42" value="&lt;font style=&quot;font-size: 16px;&quot;&gt;NIF_Cliente&lt;/font&gt;" style="rounded=0;whiteSpace=wrap;html=1;" parent="1" vertex="1">
          <mxGeometry x="340" y="760" width="116" height="40" as="geometry" />
        </mxCell>
        <mxCell id="50MeNpUmbAteGGUXeH18-43" value="" style="endArrow=classic;html=1;rounded=0;exitX=0.75;exitY=0;exitDx=0;exitDy=0;entryX=0.863;entryY=1.046;entryDx=0;entryDy=0;entryPerimeter=0;" parent="1" source="50MeNpUmbAteGGUXeH18-42" target="50MeNpUmbAteGGUXeH18-9" edge="1">
          <mxGeometry width="50" height="50" relative="1" as="geometry">
            <mxPoint x="640" y="690" as="sourcePoint" />
            <mxPoint x="680" y="120" as="targetPoint" />
            <Array as="points">
              <mxPoint x="427" y="710" />
              <mxPoint x="990" y="710" />
              <mxPoint x="990" y="470" />
              <mxPoint x="990" y="180" />
              <mxPoint x="746" y="180" />
            </Array>
          </mxGeometry>
        </mxCell>
        <mxCell id="50MeNpUmbAteGGUXeH18-45" value="" style="group" parent="1" vertex="1" connectable="0">
          <mxGeometry x="80" y="1040" width="232" height="40" as="geometry" />
        </mxCell>
        <mxCell id="50MeNpUmbAteGGUXeH18-46" value="&lt;span style=&quot;font-size: 16px;&quot;&gt;&lt;u&gt;ID do produto&lt;/u&gt;&lt;/span&gt;" style="rounded=0;whiteSpace=wrap;html=1;" parent="50MeNpUmbAteGGUXeH18-45" vertex="1">
          <mxGeometry width="116" height="40" as="geometry" />
        </mxCell>
        <mxCell id="50MeNpUmbAteGGUXeH18-47" value="&lt;font style=&quot;font-size: 16px;&quot;&gt;&lt;u&gt;NIF&lt;/u&gt;&lt;/font&gt;" style="rounded=0;whiteSpace=wrap;html=1;" parent="50MeNpUmbAteGGUXeH18-45" vertex="1">
          <mxGeometry x="116" width="116" height="40" as="geometry" />
        </mxCell>
        <mxCell id="50MeNpUmbAteGGUXeH18-48" value="" style="endArrow=classic;html=1;rounded=0;entryX=0.702;entryY=1.018;entryDx=0;entryDy=0;entryPerimeter=0;exitX=0.75;exitY=0;exitDx=0;exitDy=0;" parent="1" source="50MeNpUmbAteGGUXeH18-47" target="TNLuwmk-kuLkOU286Gwd-82" edge="1">
          <mxGeometry width="50" height="50" relative="1" as="geometry">
            <mxPoint x="400" y="1040" as="sourcePoint" />
            <mxPoint x="450" y="990" as="targetPoint" />
            <Array as="points">
              <mxPoint x="283" y="990" />
              <mxPoint x="625" y="990" />
            </Array>
          </mxGeometry>
        </mxCell>
        <mxCell id="50MeNpUmbAteGGUXeH18-50" value="" style="endArrow=classic;html=1;rounded=0;exitX=0.75;exitY=1;exitDx=0;exitDy=0;" parent="1" source="50MeNpUmbAteGGUXeH18-46" edge="1">
          <mxGeometry width="50" height="50" relative="1" as="geometry">
            <mxPoint x="200" y="1180" as="sourcePoint" />
            <mxPoint x="390" y="1210" as="targetPoint" />
            <Array as="points">
              <mxPoint x="167" y="1140" />
              <mxPoint x="390" y="1140" />
            </Array>
          </mxGeometry>
        </mxCell>
        <mxCell id="50MeNpUmbAteGGUXeH18-51" value="" style="group" parent="1" vertex="1" connectable="0">
          <mxGeometry x="450" y="1210" width="232" height="40" as="geometry" />
        </mxCell>
        <mxCell id="50MeNpUmbAteGGUXeH18-52" value="&lt;span style=&quot;font-size: 16px;&quot;&gt;Nome&lt;/span&gt;" style="rounded=0;whiteSpace=wrap;html=1;" parent="50MeNpUmbAteGGUXeH18-51" vertex="1">
          <mxGeometry width="116" height="40" as="geometry" />
        </mxCell>
        <mxCell id="50MeNpUmbAteGGUXeH18-53" value="&lt;font style=&quot;font-size: 16px;&quot;&gt;Marca&lt;/font&gt;" style="rounded=0;whiteSpace=wrap;html=1;" parent="50MeNpUmbAteGGUXeH18-51" vertex="1">
          <mxGeometry x="116" width="116" height="40" as="geometry" />
        </mxCell>
        <mxCell id="50MeNpUmbAteGGUXeH18-54" value="" style="group" parent="1" vertex="1" connectable="0">
          <mxGeometry x="80" y="1330" width="232" height="40" as="geometry" />
        </mxCell>
        <mxCell id="50MeNpUmbAteGGUXeH18-55" value="&lt;span style=&quot;font-size: 16px;&quot;&gt;&lt;u&gt;NIF_Cliente&lt;/u&gt;&lt;/span&gt;" style="rounded=0;whiteSpace=wrap;html=1;" parent="50MeNpUmbAteGGUXeH18-54" vertex="1">
          <mxGeometry width="116" height="40" as="geometry" />
        </mxCell>
        <mxCell id="50MeNpUmbAteGGUXeH18-56" value="&lt;font style=&quot;font-size: 16px;&quot;&gt;&lt;u&gt;ID do produto&lt;/u&gt;&lt;/font&gt;" style="rounded=0;whiteSpace=wrap;html=1;" parent="50MeNpUmbAteGGUXeH18-54" vertex="1">
          <mxGeometry x="116" width="116" height="40" as="geometry" />
        </mxCell>
        <mxCell id="50MeNpUmbAteGGUXeH18-57" value="&lt;font style=&quot;font-size: 18px;&quot;&gt;Vendido ao&lt;/font&gt;" style="text;html=1;align=center;verticalAlign=middle;resizable=0;points=[];autosize=1;strokeColor=none;fillColor=none;fontStyle=1" parent="1" vertex="1">
          <mxGeometry x="70" y="1290" width="120" height="40" as="geometry" />
        </mxCell>
        <mxCell id="50MeNpUmbAteGGUXeH18-59" value="" style="endArrow=classic;html=1;rounded=0;entryX=0.25;entryY=1;entryDx=0;entryDy=0;exitX=0.5;exitY=1;exitDx=0;exitDy=0;" parent="1" source="50MeNpUmbAteGGUXeH18-55" target="50MeNpUmbAteGGUXeH18-9" edge="1">
          <mxGeometry width="50" height="50" relative="1" as="geometry">
            <mxPoint x="10" y="310" as="sourcePoint" />
            <mxPoint x="60" y="260" as="targetPoint" />
            <Array as="points">
              <mxPoint x="138" y="1410" />
              <mxPoint x="40" y="1410" />
              <mxPoint x="40" y="160" />
              <mxPoint x="466" y="160" />
              <mxPoint x="675" y="160" />
            </Array>
          </mxGeometry>
        </mxCell>
        <mxCell id="50MeNpUmbAteGGUXeH18-60" value="" style="shape=table;startSize=0;container=1;collapsible=0;childLayout=tableLayout;fontSize=16;" parent="1" vertex="1">
          <mxGeometry x="80" y="1679" width="260" height="40.000000000000114" as="geometry" />
        </mxCell>
        <mxCell id="50MeNpUmbAteGGUXeH18-61" value="" style="shape=tableRow;horizontal=0;startSize=0;swimlaneHead=0;swimlaneBody=0;strokeColor=inherit;top=0;left=0;bottom=0;right=0;collapsible=0;dropTarget=0;fillColor=none;points=[[0,0.5],[1,0.5]];portConstraint=eastwest;fontSize=16;" parent="50MeNpUmbAteGGUXeH18-60" vertex="1">
          <mxGeometry width="260" height="40" as="geometry" />
        </mxCell>
        <mxCell id="50MeNpUmbAteGGUXeH18-62" value="Data de pagamento" style="shape=partialRectangle;html=1;whiteSpace=wrap;connectable=0;strokeColor=inherit;overflow=hidden;fillColor=none;top=0;left=0;bottom=0;right=0;pointerEvents=1;fontSize=16;" parent="50MeNpUmbAteGGUXeH18-61" vertex="1">
          <mxGeometry width="130" height="40" as="geometry">
            <mxRectangle width="130" height="40" as="alternateBounds" />
          </mxGeometry>
        </mxCell>
        <mxCell id="50MeNpUmbAteGGUXeH18-63" value="Valor" style="shape=partialRectangle;html=1;whiteSpace=wrap;connectable=0;strokeColor=inherit;overflow=hidden;fillColor=none;top=0;left=0;bottom=0;right=0;pointerEvents=1;fontSize=16;" parent="50MeNpUmbAteGGUXeH18-61" vertex="1">
          <mxGeometry x="130" width="130" height="40" as="geometry">
            <mxRectangle width="130" height="40" as="alternateBounds" />
          </mxGeometry>
        </mxCell>
        <mxCell id="50MeNpUmbAteGGUXeH18-64" value="&lt;b style=&quot;border-color: var(--border-color); font-size: 18px;&quot;&gt;Pagamento&lt;/b&gt;" style="text;html=1;align=center;verticalAlign=middle;resizable=0;points=[];autosize=1;strokeColor=none;fillColor=none;" parent="1" vertex="1">
          <mxGeometry x="70" y="1639" width="120" height="40" as="geometry" />
        </mxCell>
        <mxCell id="50MeNpUmbAteGGUXeH18-65" value="&lt;font style=&quot;font-size: 16px;&quot;&gt;Método Pagamento&lt;/font&gt;" style="rounded=0;whiteSpace=wrap;html=1;" parent="1" vertex="1">
          <mxGeometry x="340" y="1679" width="116" height="40" as="geometry" />
        </mxCell>
        <mxCell id="50MeNpUmbAteGGUXeH18-66" value="&lt;font style=&quot;font-size: 16px;&quot;&gt;&lt;u&gt;Comprovativo&lt;/u&gt;&lt;/font&gt;" style="rounded=0;whiteSpace=wrap;html=1;" parent="1" vertex="1">
          <mxGeometry x="456" y="1679" width="116" height="40" as="geometry" />
        </mxCell>
        <mxCell id="50MeNpUmbAteGGUXeH18-68" value="" style="shape=table;startSize=0;container=1;collapsible=0;childLayout=tableLayout;fontSize=16;" parent="1" vertex="1">
          <mxGeometry x="80" y="1819" width="260" height="40.000000000000114" as="geometry" />
        </mxCell>
        <mxCell id="50MeNpUmbAteGGUXeH18-69" value="" style="shape=tableRow;horizontal=0;startSize=0;swimlaneHead=0;swimlaneBody=0;strokeColor=inherit;top=0;left=0;bottom=0;right=0;collapsible=0;dropTarget=0;fillColor=none;points=[[0,0.5],[1,0.5]];portConstraint=eastwest;fontSize=16;" parent="50MeNpUmbAteGGUXeH18-68" vertex="1">
          <mxGeometry width="260" height="40" as="geometry" />
        </mxCell>
        <mxCell id="50MeNpUmbAteGGUXeH18-70" value="Preço total" style="shape=partialRectangle;html=1;whiteSpace=wrap;connectable=0;strokeColor=inherit;overflow=hidden;fillColor=none;top=0;left=0;bottom=0;right=0;pointerEvents=1;fontSize=16;" parent="50MeNpUmbAteGGUXeH18-69" vertex="1">
          <mxGeometry width="130" height="40" as="geometry">
            <mxRectangle width="130" height="40" as="alternateBounds" />
          </mxGeometry>
        </mxCell>
        <mxCell id="50MeNpUmbAteGGUXeH18-71" value="Impostos" style="shape=partialRectangle;html=1;whiteSpace=wrap;connectable=0;strokeColor=inherit;overflow=hidden;fillColor=none;top=0;left=0;bottom=0;right=0;pointerEvents=1;fontSize=16;" parent="50MeNpUmbAteGGUXeH18-69" vertex="1">
          <mxGeometry x="130" width="130" height="40" as="geometry">
            <mxRectangle width="130" height="40" as="alternateBounds" />
          </mxGeometry>
        </mxCell>
        <mxCell id="50MeNpUmbAteGGUXeH18-72" value="&lt;font style=&quot;font-size: 16px;&quot;&gt;&lt;u&gt;ID da fatura&lt;/u&gt;&lt;/font&gt;" style="rounded=0;whiteSpace=wrap;html=1;" parent="1" vertex="1">
          <mxGeometry x="340" y="1819" width="116" height="40" as="geometry" />
        </mxCell>
        <mxCell id="50MeNpUmbAteGGUXeH18-73" value="&lt;font style=&quot;font-size: 16px;&quot;&gt;Descrição do produto&lt;/font&gt;" style="rounded=0;whiteSpace=wrap;html=1;" parent="1" vertex="1">
          <mxGeometry x="456" y="1819" width="116" height="40" as="geometry" />
        </mxCell>
        <mxCell id="50MeNpUmbAteGGUXeH18-74" value="&lt;b style=&quot;border-color: var(--border-color); font-size: 18px;&quot;&gt;Fatura&lt;/b&gt;" style="text;html=1;align=center;verticalAlign=middle;resizable=0;points=[];autosize=1;strokeColor=none;fillColor=none;" parent="1" vertex="1">
          <mxGeometry x="80" y="1779" width="80" height="40" as="geometry" />
        </mxCell>
        <mxCell id="DKVHLjh7N5mHSXtAj3bC-3" style="edgeStyle=orthogonalEdgeStyle;rounded=0;orthogonalLoop=1;jettySize=auto;html=1;exitX=0.5;exitY=0;exitDx=0;exitDy=0;" parent="1" source="DKVHLjh7N5mHSXtAj3bC-1" edge="1">
          <mxGeometry relative="1" as="geometry">
            <mxPoint x="690" y="121" as="targetPoint" />
            <Array as="points">
              <mxPoint x="654" y="530" />
              <mxPoint x="710" y="530" />
              <mxPoint x="710" y="160" />
              <mxPoint x="690" y="160" />
            </Array>
          </mxGeometry>
        </mxCell>
        <mxCell id="DKVHLjh7N5mHSXtAj3bC-1" value="&lt;span style=&quot;font-size: 16px;&quot;&gt;NIF_Cliente&lt;/span&gt;" style="rounded=0;whiteSpace=wrap;html=1;" parent="1" vertex="1">
          <mxGeometry x="596" y="604" width="116" height="40" as="geometry" />
        </mxCell>
        <mxCell id="DKVHLjh7N5mHSXtAj3bC-4" style="edgeStyle=orthogonalEdgeStyle;rounded=0;orthogonalLoop=1;jettySize=auto;html=1;exitX=0.5;exitY=0;exitDx=0;exitDy=0;entryX=0.5;entryY=1;entryDx=0;entryDy=0;" parent="1" source="DKVHLjh7N5mHSXtAj3bC-2" target="50MeNpUmbAteGGUXeH18-28" edge="1">
          <mxGeometry relative="1" as="geometry" />
        </mxCell>
        <mxCell id="DKVHLjh7N5mHSXtAj3bC-2" value="&lt;font style=&quot;font-size: 16px;&quot;&gt;CC_Doutor&lt;/font&gt;" style="rounded=0;whiteSpace=wrap;html=1;" parent="1" vertex="1">
          <mxGeometry x="712" y="604" width="116" height="40" as="geometry" />
        </mxCell>
        <mxCell id="DKVHLjh7N5mHSXtAj3bC-6" style="edgeStyle=orthogonalEdgeStyle;rounded=0;orthogonalLoop=1;jettySize=auto;html=1;exitX=0.5;exitY=0;exitDx=0;exitDy=0;entryX=0.5;entryY=1;entryDx=0;entryDy=0;" parent="1" source="DKVHLjh7N5mHSXtAj3bC-5" target="50MeNpUmbAteGGUXeH18-66" edge="1">
          <mxGeometry relative="1" as="geometry" />
        </mxCell>
        <mxCell id="DKVHLjh7N5mHSXtAj3bC-5" value="&lt;font style=&quot;font-size: 16px;&quot;&gt;Comprovativo&lt;/font&gt;" style="rounded=0;whiteSpace=wrap;html=1;" parent="1" vertex="1">
          <mxGeometry x="571" y="1819" width="116" height="40" as="geometry" />
        </mxCell>
        <mxCell id="DKVHLjh7N5mHSXtAj3bC-10" style="edgeStyle=orthogonalEdgeStyle;rounded=0;orthogonalLoop=1;jettySize=auto;html=1;exitX=0.5;exitY=0;exitDx=0;exitDy=0;" parent="1" source="DKVHLjh7N5mHSXtAj3bC-7" edge="1">
          <mxGeometry relative="1" as="geometry">
            <mxPoint x="290" y="490" as="targetPoint" />
            <Array as="points">
              <mxPoint x="514" y="740" />
              <mxPoint x="920" y="740" />
              <mxPoint x="920" y="510" />
              <mxPoint x="290" y="510" />
            </Array>
          </mxGeometry>
        </mxCell>
        <mxCell id="DKVHLjh7N5mHSXtAj3bC-7" value="&lt;font style=&quot;font-size: 16px;&quot;&gt;CC_Doutor&lt;/font&gt;" style="rounded=0;whiteSpace=wrap;html=1;" parent="1" vertex="1">
          <mxGeometry x="456" y="760" width="116" height="40" as="geometry" />
        </mxCell>
        <mxCell id="DKVHLjh7N5mHSXtAj3bC-9" style="edgeStyle=orthogonalEdgeStyle;rounded=0;orthogonalLoop=1;jettySize=auto;html=1;exitX=0.5;exitY=1;exitDx=0;exitDy=0;" parent="1" source="DKVHLjh7N5mHSXtAj3bC-8" edge="1">
          <mxGeometry relative="1" as="geometry">
            <mxPoint x="629" y="901" as="targetPoint" />
            <Array as="points">
              <mxPoint x="630" y="850" />
              <mxPoint x="629" y="901" />
            </Array>
          </mxGeometry>
        </mxCell>
        <mxCell id="DKVHLjh7N5mHSXtAj3bC-8" value="&lt;font style=&quot;font-size: 16px;&quot;&gt;NIF_Fornecedor&lt;/font&gt;" style="rounded=0;whiteSpace=wrap;html=1;" parent="1" vertex="1">
          <mxGeometry x="572" y="760" width="128" height="40" as="geometry" />
        </mxCell>
        <mxCell id="DKVHLjh7N5mHSXtAj3bC-31" value="" style="shape=table;startSize=0;container=1;collapsible=0;childLayout=tableLayout;" parent="1" vertex="1">
          <mxGeometry x="80" y="1490" width="660" height="40" as="geometry" />
        </mxCell>
        <mxCell id="DKVHLjh7N5mHSXtAj3bC-32" value="" style="shape=tableRow;horizontal=0;startSize=0;swimlaneHead=0;swimlaneBody=0;strokeColor=inherit;top=0;left=0;bottom=0;right=0;collapsible=0;dropTarget=0;fillColor=none;points=[[0,0.5],[1,0.5]];portConstraint=eastwest;" parent="DKVHLjh7N5mHSXtAj3bC-31" vertex="1">
          <mxGeometry width="660" height="40" as="geometry" />
        </mxCell>
        <mxCell id="DKVHLjh7N5mHSXtAj3bC-40" value="&lt;font style=&quot;font-size: 14px;&quot;&gt;&lt;u&gt;ID&lt;/u&gt;&lt;/font&gt;" style="shape=partialRectangle;html=1;whiteSpace=wrap;connectable=0;strokeColor=inherit;overflow=hidden;fillColor=none;top=0;left=0;bottom=0;right=0;pointerEvents=1;" parent="DKVHLjh7N5mHSXtAj3bC-32" vertex="1">
          <mxGeometry width="110" height="40" as="geometry">
            <mxRectangle width="110" height="40" as="alternateBounds" />
          </mxGeometry>
        </mxCell>
        <mxCell id="DKVHLjh7N5mHSXtAj3bC-33" value="&lt;font style=&quot;font-size: 16px;&quot;&gt;Data_entrada&lt;/font&gt;" style="shape=partialRectangle;html=1;whiteSpace=wrap;connectable=0;strokeColor=inherit;overflow=hidden;fillColor=none;top=0;left=0;bottom=0;right=0;pointerEvents=1;" parent="DKVHLjh7N5mHSXtAj3bC-32" vertex="1">
          <mxGeometry x="110" width="110" height="40" as="geometry">
            <mxRectangle width="110" height="40" as="alternateBounds" />
          </mxGeometry>
        </mxCell>
        <mxCell id="DKVHLjh7N5mHSXtAj3bC-34" value="&lt;font style=&quot;font-size: 16px;&quot;&gt;Data_saida&lt;/font&gt;" style="shape=partialRectangle;html=1;whiteSpace=wrap;connectable=0;strokeColor=inherit;overflow=hidden;fillColor=none;top=0;left=0;bottom=0;right=0;pointerEvents=1;" parent="DKVHLjh7N5mHSXtAj3bC-32" vertex="1">
          <mxGeometry x="220" width="110" height="40" as="geometry">
            <mxRectangle width="110" height="40" as="alternateBounds" />
          </mxGeometry>
        </mxCell>
        <mxCell id="DKVHLjh7N5mHSXtAj3bC-35" value="&lt;font style=&quot;font-size: 16px;&quot;&gt;Estado&lt;/font&gt;" style="shape=partialRectangle;html=1;whiteSpace=wrap;connectable=0;strokeColor=inherit;overflow=hidden;fillColor=none;top=0;left=0;bottom=0;right=0;pointerEvents=1;" parent="DKVHLjh7N5mHSXtAj3bC-32" vertex="1">
          <mxGeometry x="330" width="110" height="40" as="geometry">
            <mxRectangle width="110" height="40" as="alternateBounds" />
          </mxGeometry>
        </mxCell>
        <mxCell id="DKVHLjh7N5mHSXtAj3bC-36" value="&lt;font style=&quot;font-size: 16px;&quot;&gt;ID_Produto&lt;/font&gt;" style="shape=partialRectangle;html=1;whiteSpace=wrap;connectable=0;strokeColor=inherit;overflow=hidden;fillColor=none;top=0;left=0;bottom=0;right=0;pointerEvents=1;" parent="DKVHLjh7N5mHSXtAj3bC-32" vertex="1">
          <mxGeometry x="440" width="110" height="40" as="geometry">
            <mxRectangle width="110" height="40" as="alternateBounds" />
          </mxGeometry>
        </mxCell>
        <mxCell id="DKVHLjh7N5mHSXtAj3bC-38" value="&lt;font style=&quot;font-size: 16px;&quot;&gt;Quantidade&lt;/font&gt;" style="shape=partialRectangle;html=1;whiteSpace=wrap;connectable=0;strokeColor=inherit;overflow=hidden;fillColor=none;top=0;left=0;bottom=0;right=0;pointerEvents=1;" parent="DKVHLjh7N5mHSXtAj3bC-32" vertex="1">
          <mxGeometry x="550" width="110" height="40" as="geometry">
            <mxRectangle width="110" height="40" as="alternateBounds" />
          </mxGeometry>
        </mxCell>
        <mxCell id="DKVHLjh7N5mHSXtAj3bC-37" value="&lt;font style=&quot;font-size: 18px;&quot;&gt;Stock&lt;/font&gt;" style="text;html=1;align=center;verticalAlign=middle;resizable=0;points=[];autosize=1;strokeColor=none;fillColor=none;fontStyle=1" parent="1" vertex="1">
          <mxGeometry x="70" y="1456" width="70" height="40" as="geometry" />
        </mxCell>
        <mxCell id="DKVHLjh7N5mHSXtAj3bC-39" value="" style="endArrow=classic;html=1;rounded=0;entryX=0.898;entryY=0.996;entryDx=0;entryDy=0;entryPerimeter=0;" parent="1" target="QlKCZ8pw-FHC3lZImdkT-61" edge="1">
          <mxGeometry width="50" height="50" relative="1" as="geometry">
            <mxPoint x="580" y="1490" as="sourcePoint" />
            <mxPoint x="290" y="1340" as="targetPoint" />
            <Array as="points">
              <mxPoint x="580" y="1320" />
              <mxPoint x="412" y="1320" />
            </Array>
          </mxGeometry>
        </mxCell>
        <mxCell id="DKVHLjh7N5mHSXtAj3bC-42" value="&lt;font style=&quot;font-size: 16px;&quot;&gt;&lt;u&gt;ID_Produto&lt;/u&gt;&lt;/font&gt;" style="rounded=0;whiteSpace=wrap;html=1;" parent="1" vertex="1">
          <mxGeometry x="573" y="1679" width="116" height="40" as="geometry" />
        </mxCell>
        <mxCell id="DKVHLjh7N5mHSXtAj3bC-43" value="&lt;font style=&quot;font-size: 16px;&quot;&gt;&lt;u&gt;NIF_Cliente&lt;/u&gt;&lt;/font&gt;" style="rounded=0;whiteSpace=wrap;html=1;" parent="1" vertex="1">
          <mxGeometry x="689" y="1679" width="116" height="40" as="geometry" />
        </mxCell>
        <mxCell id="DKVHLjh7N5mHSXtAj3bC-45" value="" style="endArrow=classic;html=1;rounded=0;exitX=0.5;exitY=0;exitDx=0;exitDy=0;" parent="1" source="DKVHLjh7N5mHSXtAj3bC-42" edge="1">
          <mxGeometry width="50" height="50" relative="1" as="geometry">
            <mxPoint x="590.0000000000005" y="1500.0000000000005" as="sourcePoint" />
            <mxPoint x="440" y="1250" as="targetPoint" />
            <Array as="points">
              <mxPoint x="631" y="1550" />
              <mxPoint x="770" y="1550" />
              <mxPoint x="770" y="1280" />
              <mxPoint x="440" y="1280" />
            </Array>
          </mxGeometry>
        </mxCell>
        <mxCell id="DKVHLjh7N5mHSXtAj3bC-46" value="" style="endArrow=classic;html=1;rounded=0;exitX=0.5;exitY=0;exitDx=0;exitDy=0;" parent="1" source="DKVHLjh7N5mHSXtAj3bC-43" edge="1">
          <mxGeometry width="50" height="50" relative="1" as="geometry">
            <mxPoint x="641" y="1689" as="sourcePoint" />
            <mxPoint x="730" y="120" as="targetPoint" />
            <Array as="points">
              <mxPoint x="747" y="1590" />
              <mxPoint x="980" y="1590" />
              <mxPoint x="980" y="150" />
              <mxPoint x="730" y="150" />
            </Array>
          </mxGeometry>
        </mxCell>
        <mxCell id="50MeNpUmbAteGGUXeH18-58" value="" style="endArrow=classic;html=1;rounded=0;exitX=0.75;exitY=0;exitDx=0;exitDy=0;entryX=0.846;entryY=1.025;entryDx=0;entryDy=0;entryPerimeter=0;" parent="1" source="50MeNpUmbAteGGUXeH18-56" target="QlKCZ8pw-FHC3lZImdkT-61" edge="1">
          <mxGeometry width="50" height="50" relative="1" as="geometry">
            <mxPoint x="410" y="1420" as="sourcePoint" />
            <mxPoint x="280" y="1330" as="targetPoint" />
            <Array as="points">
              <mxPoint x="283" y="1280" />
              <mxPoint x="393" y="1280" />
            </Array>
          </mxGeometry>
        </mxCell>
        <mxCell id="kbUmN3hAFRoJgbagbnwI-2" value="&lt;font style=&quot;font-size: 16px;&quot;&gt;Nº de produtos&lt;/font&gt;" style="rounded=0;whiteSpace=wrap;html=1;" parent="1" vertex="1">
          <mxGeometry x="310" y="1330" width="116" height="40" as="geometry" />
        </mxCell>
        <mxCell id="FRcsqPy0ve_EEwgTmN9r-1" value="" style="shape=table;startSize=0;container=1;collapsible=0;childLayout=tableLayout;fontSize=16;" vertex="1" parent="1">
          <mxGeometry x="75" y="-50" width="450" height="40" as="geometry" />
        </mxCell>
        <mxCell id="FRcsqPy0ve_EEwgTmN9r-2" value="" style="shape=tableRow;horizontal=0;startSize=0;swimlaneHead=0;swimlaneBody=0;strokeColor=inherit;top=0;left=0;bottom=0;right=0;collapsible=0;dropTarget=0;fillColor=none;points=[[0,0.5],[1,0.5]];portConstraint=eastwest;fontSize=16;" vertex="1" parent="FRcsqPy0ve_EEwgTmN9r-1">
          <mxGeometry width="450" height="40" as="geometry" />
        </mxCell>
        <mxCell id="FRcsqPy0ve_EEwgTmN9r-3" value="Nome" style="shape=partialRectangle;html=1;whiteSpace=wrap;connectable=0;strokeColor=inherit;overflow=hidden;fillColor=none;top=0;left=0;bottom=0;right=0;pointerEvents=1;fontSize=16;" vertex="1" parent="FRcsqPy0ve_EEwgTmN9r-2">
          <mxGeometry width="113" height="40" as="geometry">
            <mxRectangle width="113" height="40" as="alternateBounds" />
          </mxGeometry>
        </mxCell>
        <mxCell id="FRcsqPy0ve_EEwgTmN9r-4" value="Morada" style="shape=partialRectangle;html=1;whiteSpace=wrap;connectable=0;strokeColor=inherit;overflow=hidden;fillColor=none;top=0;left=0;bottom=0;right=0;pointerEvents=1;fontSize=16;" vertex="1" parent="FRcsqPy0ve_EEwgTmN9r-2">
          <mxGeometry x="113" width="111" height="40" as="geometry">
            <mxRectangle width="111" height="40" as="alternateBounds" />
          </mxGeometry>
        </mxCell>
        <mxCell id="FRcsqPy0ve_EEwgTmN9r-5" value="Telemóvel" style="shape=partialRectangle;html=1;whiteSpace=wrap;connectable=0;strokeColor=inherit;overflow=hidden;fillColor=none;top=0;left=0;bottom=0;right=0;pointerEvents=1;fontSize=16;" vertex="1" parent="FRcsqPy0ve_EEwgTmN9r-2">
          <mxGeometry x="224" width="114" height="40" as="geometry">
            <mxRectangle width="114" height="40" as="alternateBounds" />
          </mxGeometry>
        </mxCell>
        <mxCell id="FRcsqPy0ve_EEwgTmN9r-6" value="&lt;u&gt;CC&lt;/u&gt;" style="shape=partialRectangle;html=1;whiteSpace=wrap;connectable=0;strokeColor=inherit;overflow=hidden;fillColor=none;top=0;left=0;bottom=0;right=0;pointerEvents=1;fontSize=16;" vertex="1" parent="FRcsqPy0ve_EEwgTmN9r-2">
          <mxGeometry x="338" width="112" height="40" as="geometry">
            <mxRectangle width="112" height="40" as="alternateBounds" />
          </mxGeometry>
        </mxCell>
        <mxCell id="FRcsqPy0ve_EEwgTmN9r-7" value="&lt;font style=&quot;font-size: 16px;&quot;&gt;Email&lt;/font&gt;" style="rounded=0;whiteSpace=wrap;html=1;" vertex="1" parent="1">
          <mxGeometry x="525" y="-50" width="116" height="40" as="geometry" />
        </mxCell>
        <mxCell id="FRcsqPy0ve_EEwgTmN9r-8" value="&lt;span style=&quot;font-size: 16px;&quot;&gt;NIF&lt;/span&gt;" style="rounded=0;whiteSpace=wrap;html=1;" vertex="1" parent="1">
          <mxGeometry x="641" y="-50" width="116" height="40" as="geometry" />
        </mxCell>
        <mxCell id="FRcsqPy0ve_EEwgTmN9r-9" value="&lt;span style=&quot;font-size: 18px;&quot;&gt;&lt;b&gt;Pessoa&lt;/b&gt;&lt;/span&gt;" style="text;html=1;align=center;verticalAlign=middle;resizable=0;points=[];autosize=1;strokeColor=none;fillColor=none;" vertex="1" parent="1">
          <mxGeometry x="70" y="-90" width="90" height="40" as="geometry" />
        </mxCell>
      </root>
    </mxGraphModel>
  </diagram>
</mxfile>
